<svg width="66.05" height="17.38" viewBox="0 0 66.05 17.38" xmlns="http://www.w3.org/2000/svg"><g id="svgGroup" stroke-linecap="round" fill-rule="evenodd" font-size="9pt" stroke="#ffffff" stroke-width="0.25mm" fill="#ffffff" style="stroke:#ffffff;stroke-width:0.25mm;fill:#ffffff"><path d="M 2.754 4.021 L 2.754 11.14 Q 2.754 11.496 2.784 11.718 A 1.743 1.743 0 0 0 2.798 11.807 A 0.769 0.769 0 0 0 2.845 11.967 Q 2.895 12.083 2.981 12.159 A 0.491 0.491 0 0 0 2.988 12.166 A 0.617 0.617 0 0 0 3.13 12.254 Q 3.197 12.285 3.279 12.308 A 1.408 1.408 0 0 0 3.417 12.338 Q 3.699 12.385 4.175 12.437 L 4.57 12.48 L 4.57 13.088 L 0 13.088 L 0 12.48 L 0.249 12.444 A 8.612 8.612 0 0 0 0.438 12.416 Q 0.63 12.386 0.765 12.353 A 2.581 2.581 0 0 0 0.769 12.352 A 0.668 0.668 0 0 0 0.92 12.297 A 0.5 0.5 0 0 0 1.077 12.173 Q 1.253 11.969 1.266 11.254 A 6.411 6.411 0 0 0 1.267 11.14 L 1.267 3.728 A 4.854 4.854 0 0 0 1.26 3.45 Q 1.237 3.053 1.142 2.895 A 0.283 0.283 0 0 0 1.102 2.842 A 0.853 0.853 0 0 0 0.776 2.636 A 1.057 1.057 0 0 0 0.685 2.607 A 2.463 2.463 0 0 0 0.509 2.569 Q 0.311 2.533 0.039 2.508 A 8.236 8.236 0 0 0 0 2.505 L 0 1.875 L 1.904 1.875 A 7.938 7.938 0 0 0 2.192 1.869 Q 2.537 1.857 3.01 1.816 A 52.35 52.35 0 0 1 3.64 1.772 Q 4.322 1.727 4.812 1.717 A 13.387 13.387 0 0 1 5.094 1.714 A 4.823 4.823 0 0 1 6.455 1.915 A 5.485 5.485 0 0 1 6.61 1.963 A 4.27 4.27 0 0 1 7.266 2.235 A 3.137 3.137 0 0 1 7.874 2.644 A 2.794 2.794 0 0 1 8.834 4.671 A 3.831 3.831 0 0 1 8.84 4.885 A 3.333 3.333 0 0 1 8.21 6.833 A 3.67 3.67 0 0 1 6.841 8.019 A 4.924 4.924 0 0 1 6.116 8.32 L 11.104 15.161 L 10.554 15.579 L 4.146 8.394 L 4.468 7.742 L 5.024 7.742 Q 5.896 7.742 6.497 7.061 Q 7.17 6.279 7.178 4.997 A 4.949 4.949 0 0 0 7.178 4.966 A 3.645 3.645 0 0 0 7.063 4.01 Q 6.765 2.916 5.69 2.621 A 3.408 3.408 0 0 0 4.79 2.512 Q 3.018 2.512 2.813 3.45 Q 2.754 3.721 2.754 4.021 Z M 40.635 6.833 L 40.217 6.533 Q 40.403 6.245 40.465 5.994 A 1.006 1.006 0 0 0 40.496 5.753 A 0.589 0.589 0 0 0 40.365 5.387 Q 40.263 5.255 40.082 5.138 Q 39.668 4.871 39.097 4.871 A 5.146 5.146 0 0 0 38.781 4.88 Q 38.434 4.901 38.218 4.973 A 1.7 1.7 0 0 0 37.918 5.105 A 1.364 1.364 0 0 0 37.698 5.259 A 1.178 1.178 0 0 0 37.284 6.108 A 1.635 1.635 0 0 0 37.28 6.218 A 0.961 0.961 0 0 0 37.481 6.789 Q 37.774 7.193 38.496 7.559 A 19.472 19.472 0 0 0 38.665 7.646 Q 38.9 7.765 39.078 7.846 A 6.807 6.807 0 0 0 39.089 7.852 A 40.829 40.829 0 0 1 39.835 8.196 Q 40.833 8.67 41.274 8.965 A 2.417 2.417 0 0 1 41.44 9.086 Q 41.938 9.485 42.162 9.851 Q 42.373 10.197 42.385 10.698 A 2.558 2.558 0 0 1 42.385 10.759 Q 42.385 11.301 42.085 11.777 A 2.657 2.657 0 0 1 41.333 12.552 A 3.053 3.053 0 0 1 41.287 12.583 A 3.967 3.967 0 0 1 39.703 13.191 A 5.271 5.271 0 0 1 38.855 13.257 A 5.49 5.49 0 0 1 37.686 13.138 A 4.248 4.248 0 0 1 36.541 12.715 Q 35.457 12.136 35.486 11.243 A 1.258 1.258 0 0 1 35.768 10.486 A 1.751 1.751 0 0 1 35.94 10.298 A 1.99 1.99 0 0 1 36.885 9.8 L 37.207 10.173 A 1.187 1.187 0 0 0 36.986 10.62 Q 36.929 10.834 36.929 11.096 Q 36.929 11.566 37.385 11.941 A 2.031 2.031 0 0 0 37.456 11.997 Q 38.042 12.444 38.953 12.444 Q 39.866 12.444 40.389 12.034 A 1.305 1.305 0 0 0 40.907 11.083 A 1.698 1.698 0 0 0 40.913 10.935 Q 40.913 10.21 39.822 9.64 A 5.322 5.322 0 0 0 39.565 9.514 A 36.076 36.076 0 0 0 39.373 9.427 Q 39.099 9.305 38.906 9.225 A 67.409 67.409 0 0 1 38.817 9.188 Q 38.652 9.119 38.593 9.093 A 1.913 1.913 0 0 1 38.584 9.089 Q 38.522 9.062 38.259 8.942 A 250.933 250.933 0 0 1 38.221 8.925 A 5.685 5.685 0 0 1 38.019 8.827 Q 37.793 8.712 37.495 8.543 A 19.198 19.198 0 0 1 37.452 8.518 A 5.2 5.2 0 0 1 36.906 8.159 A 4.339 4.339 0 0 1 36.621 7.925 A 2.637 2.637 0 0 1 36.175 7.424 A 1.826 1.826 0 0 1 35.852 6.387 A 1.91 1.91 0 0 1 36.518 4.898 A 2.629 2.629 0 0 1 36.79 4.688 Q 37.683 4.087 39.163 4.087 A 4.741 4.741 0 0 1 39.963 4.151 Q 40.409 4.227 40.775 4.395 A 2.645 2.645 0 0 1 41.049 4.541 Q 41.55 4.847 41.713 5.253 A 1.104 1.104 0 0 1 41.792 5.669 A 0.899 0.899 0 0 1 41.62 6.193 Q 41.534 6.316 41.406 6.43 A 1.761 1.761 0 0 1 41.389 6.445 A 1.876 1.876 0 0 1 40.983 6.713 A 1.582 1.582 0 0 1 40.635 6.833 Z M 26.133 12.722 L 26.133 12.246 A 3.236 3.236 0 0 1 25.093 13 A 3.045 3.045 0 0 1 23.84 13.257 A 3.973 3.973 0 0 1 22.534 13.052 A 3.287 3.287 0 0 1 20.962 11.887 Q 20.039 10.664 20.039 8.774 A 6.028 6.028 0 0 1 20.232 7.213 A 4.668 4.668 0 0 1 21.057 5.537 A 3.669 3.669 0 0 1 23.658 4.119 A 5.335 5.335 0 0 1 24.25 4.087 A 17.232 17.232 0 0 1 25.158 4.112 A 19.606 19.606 0 0 1 25.474 4.131 Q 26.611 4.22 26.947 4.226 A 2.503 2.503 0 0 0 26.99 4.226 L 28.887 4.226 L 28.887 4.849 Q 28.052 4.907 27.876 5.087 A 0.815 0.815 0 0 0 27.733 5.282 A 0.693 0.693 0 0 0 27.664 5.49 A 2.346 2.346 0 0 0 27.643 5.658 Q 27.635 5.746 27.631 5.848 A 5.607 5.607 0 0 0 27.627 6.064 L 27.627 12.708 A 5.751 5.751 0 0 1 27.404 14.34 A 4.693 4.693 0 0 1 26.58 15.937 A 3.626 3.626 0 0 1 23.936 17.363 A 4.784 4.784 0 0 1 23.525 17.38 A 4.15 4.15 0 0 1 21.672 16.941 L 21.958 16.15 A 3.537 3.537 0 0 0 22.848 16.369 A 4.472 4.472 0 0 0 23.372 16.399 A 3.207 3.207 0 0 0 23.968 16.346 Q 24.374 16.269 24.694 16.08 A 2.507 2.507 0 0 0 25.554 15.249 Q 26.011 14.503 26.107 13.361 A 7.613 7.613 0 0 0 26.133 12.722 Z M 64.556 7.214 L 64.153 6.892 A 1.231 1.231 0 0 0 64.46 6.394 Q 64.528 6.197 64.551 5.956 A 2.777 2.777 0 0 0 64.563 5.691 A 0.668 0.668 0 0 0 64.319 5.161 A 0.977 0.977 0 0 0 64.189 5.068 A 1.082 1.082 0 0 0 63.947 4.968 Q 63.663 4.885 63.23 4.885 Q 62.23 4.885 61.948 5.355 A 0.838 0.838 0 0 0 61.838 5.793 L 61.838 11.36 A 2.628 2.628 0 0 0 61.846 11.572 Q 61.854 11.671 61.871 11.756 A 1.191 1.191 0 0 0 61.901 11.88 A 0.527 0.527 0 0 0 62.076 12.137 A 0.745 0.745 0 0 0 62.183 12.209 A 1.071 1.071 0 0 0 62.416 12.303 Q 62.807 12.416 63.602 12.459 A 15.863 15.863 0 0 0 63.94 12.473 L 63.94 13.081 L 59.048 13.081 L 59.048 12.48 L 59.063 12.473 A 8.609 8.609 0 0 0 59.362 12.438 Q 59.821 12.375 60.01 12.285 A 0.366 0.366 0 0 0 60.099 12.228 A 0.72 0.72 0 0 0 60.241 12.052 A 0.623 0.623 0 0 0 60.311 11.862 A 1.796 1.796 0 0 0 60.333 11.717 Q 60.352 11.543 60.352 11.301 L 60.352 6.226 A 6.477 6.477 0 0 0 60.346 5.948 Q 60.327 5.511 60.244 5.322 A 0.36 0.36 0 0 0 60.194 5.237 A 0.816 0.816 0 0 0 59.81 4.973 A 2.05 2.05 0 0 0 59.636 4.926 Q 59.454 4.885 59.209 4.856 L 59.209 4.233 L 60.725 4.233 A 35.353 35.353 0 0 0 61.143 4.231 Q 61.66 4.225 61.943 4.202 A 3.964 3.964 0 0 0 62.007 4.197 A 38.524 38.524 0 0 1 62.187 4.18 Q 62.443 4.156 62.607 4.146 A 19.908 19.908 0 0 1 62.995 4.115 Q 63.39 4.087 63.671 4.087 A 6.054 6.054 0 0 1 63.68 4.087 A 5.671 5.671 0 0 1 64.421 4.137 A 6.337 6.337 0 0 1 64.534 4.153 A 3.112 3.112 0 0 1 64.96 4.246 A 2.392 2.392 0 0 1 65.31 4.38 A 1.548 1.548 0 0 1 65.69 4.628 A 1.087 1.087 0 0 1 66.05 5.471 A 1.465 1.465 0 0 1 65.803 6.278 A 2.084 2.084 0 0 1 65.566 6.577 A 2.474 2.474 0 0 1 65.102 6.968 A 1.985 1.985 0 0 1 64.556 7.214 Z M 44.165 13.081 L 44.165 12.473 A 16.933 16.933 0 0 0 44.321 12.438 Q 44.5 12.396 44.629 12.361 A 4.875 4.875 0 0 0 44.689 12.345 Q 44.881 12.291 44.976 12.161 A 0.421 0.421 0 0 0 44.978 12.158 A 0.476 0.476 0 0 0 45.045 12.022 Q 45.123 11.787 45.136 11.281 A 8.353 8.353 0 0 0 45.139 11.06 L 45.139 5.127 L 43.887 5.127 L 43.887 4.453 A 13.382 13.382 0 0 0 44.256 4.395 Q 44.986 4.269 45.117 4.138 L 45.11 4.138 A 0.72 0.72 0 0 0 45.186 4 Q 45.301 3.734 45.396 3.157 A 33.361 33.361 0 0 0 45.452 2.801 Q 45.524 2.33 45.547 2.064 A 4.448 4.448 0 0 0 45.549 2.036 L 46.611 1.597 L 46.611 4.233 L 49.263 4.233 L 49.263 5.127 L 46.611 5.127 L 46.611 11.038 A 7.589 7.589 0 0 0 46.615 11.276 Q 46.627 11.653 46.679 11.827 A 0.442 0.442 0 0 0 46.71 11.906 Q 46.806 12.087 46.947 12.175 A 0.535 0.535 0 0 0 46.956 12.18 Q 47.062 12.244 47.223 12.285 A 1.795 1.795 0 0 0 47.351 12.312 A 3.19 3.19 0 0 0 47.585 12.344 Q 47.972 12.384 48.67 12.397 A 31.492 31.492 0 0 0 48.823 12.4 L 48.823 13.081 L 44.165 13.081 Z M 17.966 11.572 L 18.384 11.99 A 3.211 3.211 0 0 1 16.609 13.088 Q 16.083 13.219 15.457 13.227 A 6.407 6.407 0 0 1 15.374 13.228 A 4.804 4.804 0 0 1 14.093 13.066 A 3.494 3.494 0 0 1 12.349 11.975 A 4.15 4.15 0 0 1 11.449 10.161 Q 11.302 9.531 11.301 8.793 A 7.338 7.338 0 0 1 11.301 8.782 Q 11.301 6.738 12.466 5.405 Q 13.623 4.087 15.432 4.087 Q 16.41 4.087 17.084 4.379 A 2.471 2.471 0 0 1 17.593 4.673 A 1.746 1.746 0 0 1 18.32 5.941 A 2.299 2.299 0 0 1 18.333 6.182 A 2.314 2.314 0 0 1 17.628 7.849 A 3.599 3.599 0 0 1 17.131 8.269 A 4.584 4.584 0 0 1 15.91 8.865 Q 14.768 9.241 13.122 9.276 A 15.944 15.944 0 0 1 12.898 9.28 A 5.448 5.448 0 0 0 13.114 10.442 Q 13.629 12.085 15.224 12.256 A 3.612 3.612 0 0 0 15.608 12.275 Q 16.65 12.275 17.363 11.952 A 2.516 2.516 0 0 0 17.966 11.572 Z M 56.675 11.572 L 57.092 11.99 A 3.211 3.211 0 0 1 55.317 13.088 Q 54.791 13.219 54.166 13.227 A 6.407 6.407 0 0 1 54.082 13.228 A 4.804 4.804 0 0 1 52.801 13.066 A 3.494 3.494 0 0 1 51.057 11.975 A 4.15 4.15 0 0 1 50.157 10.161 Q 50.011 9.531 50.01 8.793 A 7.338 7.338 0 0 1 50.01 8.782 Q 50.01 6.738 51.174 5.405 Q 52.332 4.087 54.141 4.087 Q 55.118 4.087 55.792 4.379 A 2.471 2.471 0 0 1 56.301 4.673 A 1.746 1.746 0 0 1 57.029 5.941 A 2.299 2.299 0 0 1 57.041 6.182 A 2.314 2.314 0 0 1 56.337 7.849 A 3.599 3.599 0 0 1 55.84 8.269 A 4.584 4.584 0 0 1 54.619 8.865 Q 53.477 9.241 51.83 9.276 A 15.944 15.944 0 0 1 51.606 9.28 A 5.448 5.448 0 0 0 51.822 10.442 Q 52.337 12.085 53.932 12.256 A 3.612 3.612 0 0 0 54.316 12.275 Q 55.359 12.275 56.072 11.952 A 2.516 2.516 0 0 0 56.675 11.572 Z M 29.927 13.081 L 29.927 12.473 L 30.183 12.437 A 8.4 8.4 0 0 0 30.386 12.406 Q 30.476 12.391 30.553 12.376 A 3.466 3.466 0 0 0 30.696 12.345 A 0.717 0.717 0 0 0 30.842 12.294 A 0.509 0.509 0 0 0 31.003 12.173 Q 31.18 11.962 31.193 11.246 A 6.417 6.417 0 0 0 31.194 11.133 L 31.194 6.167 A 6.158 6.158 0 0 0 31.187 5.855 Q 31.164 5.417 31.073 5.238 A 0.299 0.299 0 0 0 31.018 5.16 A 0.789 0.789 0 0 0 30.593 4.944 A 4.68 4.68 0 0 0 30.421 4.917 Q 30.228 4.89 29.965 4.867 A 15.541 15.541 0 0 0 29.927 4.863 L 29.927 4.233 L 33.933 4.233 L 33.933 4.863 A 17.13 17.13 0 0 0 33.735 4.885 Q 33.508 4.912 33.343 4.938 A 5.027 5.027 0 0 0 33.267 4.951 Q 33.084 4.983 32.964 5.059 A 0.514 0.514 0 0 0 32.886 5.12 Q 32.673 5.317 32.673 6.167 L 32.673 11.133 A 8.32 8.32 0 0 0 32.678 11.422 Q 32.693 11.851 32.757 12.029 A 0.294 0.294 0 0 0 32.805 12.122 A 0.633 0.633 0 0 0 33.131 12.327 A 3.242 3.242 0 0 0 33.265 12.359 Q 33.421 12.393 33.633 12.427 A 10.392 10.392 0 0 0 33.647 12.429 L 33.933 12.473 L 33.933 13.081 L 29.927 13.081 Z M 26.133 10.364 L 26.133 6.372 Q 26.133 5.632 25.891 5.376 A 1.306 1.306 0 0 0 25.437 5.072 Q 25.027 4.901 24.394 4.881 A 5.414 5.414 0 0 0 24.221 4.878 Q 21.702 4.878 21.702 8.774 A 9.163 9.163 0 0 0 21.779 10.021 Q 22.114 12.444 23.899 12.444 Q 24.851 12.444 25.496 11.829 Q 26.133 11.221 26.133 10.364 Z M 12.876 8.496 A 9.122 9.122 0 0 0 14.074 8.4 Q 15.422 8.193 16.13 7.555 A 2.303 2.303 0 0 0 16.406 7.258 A 1.61 1.61 0 0 0 16.713 6.54 A 2.194 2.194 0 0 0 16.743 6.167 A 1.516 1.516 0 0 0 16.675 5.698 Q 16.53 5.251 16.077 5.026 A 1.584 1.584 0 0 0 16.011 4.995 Q 15.775 4.892 15.445 4.874 A 2.658 2.658 0 0 0 15.3 4.871 A 2.052 2.052 0 0 0 14.899 4.908 A 1.605 1.605 0 0 0 14.546 5.021 A 2.05 2.05 0 0 0 13.953 5.431 A 2.717 2.717 0 0 0 13.555 5.932 A 3.101 3.101 0 0 0 13.491 6.039 A 4.064 4.064 0 0 0 13.178 6.739 A 4.478 4.478 0 0 0 13.162 6.79 A 5.762 5.762 0 0 0 12.876 8.496 Z M 51.584 8.496 A 9.122 9.122 0 0 0 52.783 8.4 Q 54.131 8.193 54.838 7.555 A 2.303 2.303 0 0 0 55.115 7.258 A 1.61 1.61 0 0 0 55.421 6.54 A 2.194 2.194 0 0 0 55.452 6.167 A 1.516 1.516 0 0 0 55.384 5.698 Q 55.239 5.251 54.785 5.026 A 1.584 1.584 0 0 0 54.719 4.995 Q 54.484 4.892 54.154 4.874 A 2.658 2.658 0 0 0 54.009 4.871 A 2.052 2.052 0 0 0 53.608 4.908 A 1.605 1.605 0 0 0 53.254 5.021 A 2.05 2.05 0 0 0 52.661 5.431 A 2.717 2.717 0 0 0 52.263 5.932 A 3.101 3.101 0 0 0 52.2 6.039 A 4.064 4.064 0 0 0 51.887 6.739 A 4.478 4.478 0 0 0 51.87 6.79 A 5.762 5.762 0 0 0 51.584 8.496 Z M 31.868 2.637 L 30.535 1.311 L 31.868 0 L 33.171 1.311 L 31.868 2.637 Z" vector-effect="non-scaling-stroke"/></g></svg>